<svg id="Layer_1" data-name="Layer 1" xmlns="http://www.w3.org/2000/svg" viewBox="0 0 242.67 275"><defs><style>.cls-1{fill:#1b5a6c;}</style></defs><title>EOS-NY_Mark</title><path class="cls-1" d="M73.7,121.27l5.61-2.88,3.2,10.43-5.39,2.78c1.6,5,3.19,9.68,5.37,16.58L122,126.89l39.57,21.34,5.32-16.5L126.62,111l-4.41-14.38,48.33,25,20.27-64.35a2.7,2.7,0,0,0-4.56-2.63L172.1,70,133.34,9.27a14,14,0,0,0-11.29-5.85h-.2a14.08,14.08,0,0,0-11.3,5.85L72,69.71,58.05,54.53a2.68,2.68,0,0,0-4.54,2.62Zm17,3.31-3.2-10.42,9.37-4.81,3.19,10.4Zm17.58-9.08-3.19-10.38,8.81-4.52L117.11,111Zm11-99.95a3.24,3.24,0,0,1,2.59-1.34H122a3.24,3.24,0,0,1,2.59,1.34l40,62.65L157.39,86,136.17,74.57l-11.9-35.79a2.53,2.53,0,0,0-4.79,0l-11.9,35.79h-.77l-20.27,11-7-7.67Z"/><path class="cls-1" d="M154,170.77l4-12.86c-13.4-10.37-27.06-9.15-27.06-9.15-3.08,0,3.1,10.63,4.56,15s8.49,5.55,8.49,5.55A83.86,83.86,0,0,1,154,170.77Z"/><polygon class="cls-1" points="67.21 132.41 50.26 205.98 100.21 236.39 86.4 193.16 76.73 184.75 81.32 177.54 67.21 132.41"/><polygon class="cls-1" points="176.1 132.72 162.78 175.1 166.17 192.83 153.45 204.8 143.54 236.28 193.34 205.55 176.1 132.72"/><path class="cls-1" d="M126.62,199.28l15,2.12L132,192.75l-7.13-2.14,3.71-3.42,5.27,0a18.39,18.39,0,0,0-1.57-6.81c-1.56-3.41-10.55-3.69-13.34-4s-2.18-4-2.18-4l-.07-24.79-31.51,6c2.32,7.28,4.5,14.1,6,18.88l17.32-4.57-.67,23.63s-4.63,3.69-9.94,2L114.32,245l7.76,4.73,7.85-4.87c3-9.65,6.16-19.71,8.57-27.45a33.32,33.32,0,0,1-11.81,3.78s-8.59,1.25-9.92-4.51c-1-4.14,2.24-5.46,4.19-6.42s7.35-3.12,7.35-3.12L125,203C121.67,198.88,126.62,199.28,126.62,199.28Z"/><path class="cls-1" d="M238.52,150.57l-37.81-4.3-5-19.87L235.15,97a2.69,2.69,0,0,0-2.05-4.81l-44.21,6.77-6.21,19.65,22.49,90.08a3.21,3.21,0,0,1-1.46,3.48l-80.09,49.17a3.06,3.06,0,0,1-.55.26,4.57,4.57,0,0,1-2.93-.46l.34.21a3.61,3.61,0,0,0,.81.35l.43.08a1.83,1.83,0,0,0,.33,0H122a3.13,3.13,0,0,1-1.67-.47L40.19,212.14a3.21,3.21,0,0,1-1.46-3.48L61.4,117.87,55.19,98.22,9.45,92.16a2.69,2.69,0,0,0-2,4.81l40.52,30.3-4.7,18.81L4,150.57a2.69,2.69,0,0,0-.68,5.17l34.08,13.59L28.22,206.2a14,14,0,0,0,6.33,15.14l80.08,49.17a14,14,0,0,0,14.61,0l80.11-49.18a14,14,0,0,0,6.33-15.13l-9.36-37.49,32.89-13A2.69,2.69,0,0,0,238.52,150.57Z"/></svg>