<svg xmlns="http://www.w3.org/2000/svg" xmlns:xlink="http://www.w3.org/1999/xlink" viewBox="0 0 310.85 310.85">
<defs>
    <style>.
        cls-1{fill:none;}.cls-2{clip-path:url(#clip-path);}.cls-3{fill:#4587c7;}.cls-4{fill:#fbfcfc;}.cls-5{fill:#fbfcfd;}.cls-6{fill:#f3f8fc;}.cls-7{fill:#4487c7;}
    </style>
    <clipPath id="clip-path" transform="translate(-3.11 -3.11)">
        <circle class="cls-1" cx="158.34" cy="159.42" r="153.28"/>
    </clipPath>
</defs>
    <title>bos_icon</title>
      <g id="Layer_2" data-name="Layer 2">
        <g id="Layer_2-2" data-name="Layer 2">
            <g class="cls-2">
                <path class="cls-3" d="M136.77,3.11h40.41c2.63,1.19,5.14,2.91,7.9,3.5,66,14.17,107.12,54.23,124.31,119.28,1.25,4.74,3,9.33,4.57,14v40.41c-2,5.06-4.38,10-5.86,15.19-17.85,63.14-59,101.19-123,115-2.76.6-5.28,2.31-7.91,3.5H136.77c-3.58-1.51-7-3.49-10.76-4.46Q31.94,285.06,7.58,191.05c-1-3.73-3-7.18-4.47-10.76V136.77c1.67-4.07,3.82-8,4.94-12.23Q32.47,32.41,124.54,8C128.75,6.92,132.7,4.78,136.77,3.11Zm-6.49,224c10.71,31,35.69,46.92,66.44,43.54,28.15-3.09,50.63-26.6,53.6-56,2.8-27.7-14.81-54.76-42.21-63.42-8.27-2.61-17.32-2.66-25.94-4.24-23.76-4.36-38.3-26.77-32.4-49.7,5.63-21.93,29.5-34.94,51.31-28,22.15,7.09,33.43,32.19,24.25,54.23-1.7,4.08-3.86,8-5.94,12.22l16.54,11.32c16.24-21.46,19.17-43.6,8-66.42-11.79-24.16-32.25-36.27-59.25-34.42-33.79,2.32-51.1,23.7-58.7,55.05l-11-2.46c-31.48-7-61.63,9.14-72.45,38.74a61.68,61.68,0,0,0,29,75.72c27.83,14.78,61.19,6.59,79.91-19.66,2.1-2.94,3.77-6.21,6-9a39.94,39.94,0,0,1,70.39,33c-4.13,19-19.44,31.6-38.73,31.66-22.77.07-34.47-13.74-41.33-34.5Z" transform="translate(-3.11 -3.11)"/>
                <path class="cls-4" d="M314,139.88c-1.54-4.66-3.32-9.25-4.57-14C292.2,60.84,251.11,20.78,185.08,6.61c-2.76-.59-5.27-2.31-7.9-3.5H314Z" transform="translate(-3.11 -3.11)"/>
                <path class="cls-4" d="M177.18,314c2.63-1.19,5.15-2.9,7.91-3.5,64-13.79,105.16-51.84,123-115,1.48-5.2,3.88-10.13,5.86-15.19V314Z" transform="translate(-3.11 -3.11)"/>
                <path class="cls-5" d="M136.77,3.11c-4.07,1.67-8,3.81-12.23,4.93Q32.41,32.47,8.05,124.54c-1.12,4.22-3.27,8.16-4.94,12.23V3.11Z" transform="translate(-3.11 -3.11)"/>
                <path class="cls-4" d="M3.11,180.29c1.51,3.58,3.51,7,4.47,10.76Q32,285.13,126,309.5c3.72,1,7.18,2.95,10.76,4.46H3.11Z" transform="translate(-3.11 -3.11)"/>
                <path class="cls-6" d="M130.28,227.15l17.5-12.35c6.86,20.76,18.56,34.57,41.33,34.5,19.29-.06,34.6-12.66,38.73-31.66a39.94,39.94,0,0,0-70.39-33c-2.24,2.83-3.91,6.1-6,9-18.72,26.25-52.08,34.44-79.91,19.66a61.68,61.68,0,0,1-29-75.72C53.34,108,83.49,91.87,115,98.85l11,2.46c7.6-31.35,24.91-52.73,58.7-55,27-1.85,47.46,10.26,59.25,34.42,11.13,22.82,8.2,45-8,66.42l-16.54-11.32c2.08-4.25,4.24-8.14,5.94-12.22,9.18-22-2.1-47.14-24.25-54.23-21.81-7-45.68,6-51.31,28-5.9,22.93,8.64,45.34,32.4,49.7,8.62,1.58,17.67,1.63,25.94,4.24,27.4,8.66,45,35.72,42.21,63.42-3,29.44-25.45,53-53.6,56C166,274.07,141,258.12,130.28,227.15ZM100.8,198.83a40.16,40.16,0,0,0,.1-80.31C79,118.26,60.29,136.76,60.27,158.7A40.45,40.45,0,0,0,100.8,198.83Z" transform="translate(-3.11 -3.11)"/>
                <path class="cls-7" d="M100.8,198.83A40.45,40.45,0,0,1,60.27,158.7c0-21.94,18.72-40.44,40.63-40.18a40.16,40.16,0,0,1-.1,80.31Z" transform="translate(-3.11 -3.11)"/>
            </g>
        </g>
      </g>
</svg>