<svg xmlns="http://www.w3.org/2000/svg" xmlns:xlink="http://www.w3.org/1999/xlink" viewBox="0 0 310.89 310.89"><defs><style>.cls-1{fill:none;}.cls-2{clip-path:url(#clip-path);}.cls-3{clip-path:url(#clip-path-2);}.cls-4{fill:#4587c7;}.cls-5{fill:#fbfcfc;}.cls-6{fill:#fbfcfd;}.cls-7{fill:#f3f8fc;}.cls-8{fill:#4487c7;}</style><clipPath id="clip-path"><circle class="cls-1" cx="155.43" cy="156.51" r="151.48"/></clipPath><clipPath id="clip-path-2"><circle class="cls-1" cx="155.23" cy="156.31" r="153.28"/></clipPath></defs><title>Asset 1</title><g id="Layer_2" data-name="Layer 2"><g id="Layer_1-2" data-name="Layer 1"><g class="cls-2"><g id="Layer_2-2" data-name="Layer 2-2"><g class="cls-3"><path class="cls-4" d="M133.66,0h40.41c2.63,1.19,5.14,2.91,7.9,3.5,66,14.17,107.12,54.23,124.31,119.28,1.25,4.74,3,9.33,4.57,14v40.41c-2,5.06-4.38,10-5.86,15.19-17.85,63.14-59,101.19-123,115-2.76.6-5.28,2.31-7.91,3.5H133.66c-3.58-1.51-7-3.49-10.76-4.46Q28.83,282,4.47,187.94c-1-3.73-3-7.18-4.47-10.76V133.66c1.67-4.07,3.82-8,4.94-12.23Q29.36,29.3,121.43,4.89C125.64,3.81,129.59,1.67,133.66,0Zm-6.49,224c10.71,31,35.69,46.92,66.44,43.54,28.15-3.09,50.63-26.6,53.6-56,2.8-27.7-14.81-54.76-42.21-63.42-8.27-2.61-17.32-2.66-25.94-4.24-23.76-4.36-38.3-26.77-32.4-49.7,5.63-21.93,29.5-34.94,51.31-28,22.15,7.09,33.43,32.19,24.25,54.23-1.7,4.08-3.86,8-5.94,12.22L232.82,144c16.24-21.46,19.17-43.6,8-66.42C229,53.37,208.57,41.26,181.57,43.11c-33.79,2.32-51.1,23.7-58.7,55.05l-11-2.46c-31.48-7-61.63,9.14-72.45,38.74a61.68,61.68,0,0,0,29,75.72c27.83,14.78,61.19,6.59,79.91-19.66,2.1-2.94,3.77-6.21,6-9a39.94,39.94,0,0,1,70.39,33c-4.13,19-19.44,31.6-38.73,31.66-22.77.07-34.47-13.74-41.33-34.5Z"/><path class="cls-5" d="M310.89,136.77c-1.54-4.66-3.32-9.25-4.57-14C289.09,57.73,248,17.67,182,3.5c-2.76-.59-5.27-2.31-7.9-3.5H310.89Z"/><path class="cls-5" d="M174.07,310.89c2.63-1.19,5.15-2.9,7.91-3.5,64-13.79,105.16-51.84,123-115,1.48-5.2,3.88-10.13,5.86-15.19V310.89Z"/><path class="cls-6" d="M133.66,0c-4.07,1.67-8,3.81-12.23,4.93Q29.3,29.37,4.94,121.43c-1.12,4.22-3.27,8.16-4.94,12.23V0Z"/><path class="cls-5" d="M0,177.18c1.51,3.58,3.51,7,4.47,10.76Q28.89,282,122.89,306.39c3.72,1,7.18,2.95,10.76,4.46H0Z"/><path class="cls-7" d="M127.17,224l17.5-12.35c6.86,20.76,18.56,34.57,41.33,34.5,19.29-.06,34.6-12.66,38.73-31.66a39.94,39.94,0,0,0-70.39-33c-2.24,2.83-3.91,6.1-6,9C129.62,216.78,96.26,225,68.43,210.19a61.68,61.68,0,0,1-29-75.72c10.8-29.58,40.95-45.71,72.46-38.73l11,2.46c7.6-31.35,24.91-52.73,58.7-55,27-1.85,47.46,10.26,59.25,34.42,11.13,22.82,8.2,45-8,66.42L216.3,132.72c2.08-4.25,4.24-8.14,5.94-12.22,9.18-22-2.1-47.14-24.25-54.23-21.81-7-45.68,6-51.31,28-5.9,22.93,8.64,45.34,32.4,49.7,8.62,1.58,17.67,1.63,25.94,4.24,27.4,8.66,45,35.72,42.21,63.42-3,29.44-25.45,53-53.6,56C162.89,271,137.89,255,127.17,224ZM97.69,195.72a40.16,40.16,0,0,0,.1-80.31c-21.9-.26-40.61,18.24-40.63,40.18A40.45,40.45,0,0,0,97.69,195.72Z"/><path class="cls-8" d="M97.69,195.72a40.45,40.45,0,0,1-40.53-40.13c0-21.94,18.72-40.44,40.63-40.18a40.16,40.16,0,0,1-.1,80.31Z"/></g></g></g></g></g></svg>