<svg xmlns="http://www.w3.org/2000/svg" viewBox="0 0 354.88 511.57"><defs><style>.cls-1{fill:#fff;}</style></defs><title>Asset 3</title><g id="Layer_2" data-name="Layer 2"><g id="Layer_1-2" data-name="Layer 1"><path class="cls-1" d="M286.29,162.49c-2-3.8-101.1-139.3-103.5-141.5a7.9,7.9,0,0,0-10.2-.5c-1.1,1-25.1,33.4-53.3,71.9L68,162.59,43,276.79c-23.1,105.7-24.8,114.4-23.5,116.7,2.3,3.9,154.1,99.3,158,99.3,2.2,0,22.9-12.5,80-48.2,62.8-39.3,77.1-48.7,78.1-51.1,1.1-2.6-1.5-15.4-23.6-116.1C298.39,215.19,286.79,163.49,286.29,162.49Zm-8.2,35.8c1.2,3.8,30.5,138.8,30.2,139-.5.6-47.8-83.2-47.8-84.6,0-1.1,7.5-25.2,14.7-47.4C276.69,200.89,278,197.69,278.09,198.29Zm-92.6-111.7c0-19.3.2-34.9.5-34.6s19.3,26.2,42.3,57.7l41.9,57.3-10.5,33.2c-5.7,18.2-10.5,33.2-10.6,33.3s-14.4-25-31.9-55.8l-31.7-56.1Zm-8,54.3c1,0,64.5,113.9,64.2,115.1-.1.7-9.1,29.4-20,63.8l-19.8,62.5h-48.8l-19.8-62.5c-10.9-34.4-19.9-63.1-20-63.8s14.1-26.8,31.7-58.2S177.19,140.89,177.49,140.89Zm-50.2-32.2L169,51.79l.3,34.9.2,34.9-31.1,54.8c-17.1,30.2-31.5,55.3-31.9,55.7s-1.3-.6-1.8-2.5-5.2-16.2-10.1-32-9.1-29.4-9.1-30.3S104.29,140,127.29,108.69Zm-65.6,158.7c8.4-38.3,15.5-69,15.9-68.3,1,1.8,16.9,52.3,16.9,53.6s-47.3,85.1-47.8,84.7C46.49,337.19,53.29,305.69,61.69,267.39Zm-20.1,113.1c2.2-3.9,56.1-99.1,58.1-102.5,1.1-1.8,2.2-3.2,2.3-3,.6.6,33.5,105.5,33.5,106.6,0,.9-12.1,1.2-47.5,1.2H40.39Zm120.6,84.9c-.1.2-23.6-14.3-52.2-32.2s-52.7-32.9-53.5-33.4,15.3-1,41.7-1h43.2l6.5,20.2C160.29,457.79,162.49,465.09,162.19,465.39Zm15.3-8.6c-.3,0-4.6-12.4-9.4-27.6s-9-28.2-9.3-29c-.4-1.2,2.5-1.4,18.7-1.4s19.1.2,18.7,1.4c-.3.8-4.5,13.8-9.3,29S177.79,456.79,177.49,456.79Zm15.3,8.6c-.3-.3,1.8-7,14.3-46.4l6.5-20.2h43.1c23.7,0,42.9.2,42.7.4C298.19,400.39,193.09,465.69,192.79,465.39Zm121.8-82.6H267c-35.2,0-47.5-.3-47.5-1.2,0-.6,7.5-24.9,16.7-54s17-52.5,17.4-52.1c.7.7,55.8,97.6,59.8,105Z"/><path d="M331.09,276.79c-13.6-61.9-25.4-115-26.2-118.1-1.4-4.8-9.2-16-55.2-78.9-50.4-68.7-54-73.5-59-76.3-6.3-3.5-15.5-4.5-21.3-2.4-8.8,3.3-9.7,4.4-63.4,77.8-29,39.6-53.5,73.7-54.5,75.7s-13.1,55.9-27,119.6C0,386.19-.81,390.29.29,395.49a29.29,29.29,0,0,0,11.5,17.1c7.9,5.4,150.1,94.3,154,96.4a25.34,25.34,0,0,0,19.7,1.1c4.6-1.6,136.1-83.1,156.9-97.2,6.9-4.7,10.6-10.2,12.2-18.2C355.69,389.49,354.79,385.09,331.09,276.79Zm4.5,116.7c-1,2.4-15.3,11.8-78.1,51.1-57.1,35.7-77.8,48.2-80,48.2-3.9,0-155.7-95.4-158-99.3-1.3-2.3.4-11,23.5-116.7l25-114.2,51.3-70.2c28.2-38.5,52.2-70.9,53.3-71.9a7.9,7.9,0,0,1,10.2.5c2.4,2.2,101.5,137.7,103.5,141.5.5,1,12.1,52.7,25.7,114.9C334.09,378.09,336.69,390.89,335.59,393.49Z"/><path d="M104.69,229.59c.5,1.9,1.4,3,1.8,2.5s14.8-25.5,31.9-55.7l31.1-54.8-.2-34.9-.3-34.9-41.7,56.9c-23,31.3-41.8,57.7-41.8,58.6s4.1,14.6,9.1,30.3S104.09,227.79,104.69,229.59Z"/><path d="M249.09,233.49c.1-.1,4.9-15.1,10.6-33.3l10.5-33.2-41.9-57.3c-23-31.5-42-57.5-42.3-57.7s-.5,15.3-.5,34.6v35l31.7,56.1C234.69,208.49,249,233.59,249.09,233.49Z"/><path d="M113.29,256c.1.7,9.1,29.4,20,63.8l19.8,62.5h48.8l19.8-62.5c10.9-34.4,19.9-63.1,20-63.8.3-1.2-63.2-115.1-64.2-115.1-.3,0-14.9,25.6-32.5,56.9S113.09,255.39,113.29,256Z"/><path d="M94.49,252.69c0-1.3-15.9-51.8-16.9-53.6-.4-.7-7.5,30-15.9,68.3s-15.2,69.8-15,70C47.19,337.79,94.49,254.09,94.49,252.69Z"/><path d="M308.29,337.29c.3-.2-29-135.2-30.2-139-.1-.6-1.4,2.6-2.9,7-7.2,22.2-14.7,46.3-14.7,47.4C260.49,254.09,307.79,337.89,308.29,337.29Z"/><path d="M135.49,381.59c0-1.1-32.9-106-33.5-106.6-.1-.2-1.2,1.2-2.3,3-2,3.4-55.9,98.6-58.1,102.5l-1.2,2.3H88C123.39,382.79,135.49,382.49,135.49,381.59Z"/><path d="M236.19,327.59c-9.2,29.1-16.7,53.4-16.7,54,0,.9,12.3,1.2,47.5,1.2h47.6l-1.2-2.3c-4-7.4-59.1-104.3-59.8-105C253.19,275.09,245.39,298.59,236.19,327.59Z"/><path d="M141.39,398.79H98.19c-26.4,0-42.6.4-41.7,1s24.9,15.5,53.5,33.4,52.1,32.4,52.2,32.2c.3-.3-1.9-7.6-14.3-46.4Z"/><path d="M177.49,398.79c-16.2,0-19.1.2-18.7,1.4.3.8,4.5,13.8,9.3,29s9.1,27.6,9.4,27.6,4.6-12.4,9.4-27.6,9-28.2,9.3-29C196.59,399,193.69,398.79,177.49,398.79Z"/><path d="M213.59,398.79l-6.5,20.2c-12.5,39.4-14.6,46.1-14.3,46.4s105.4-65,106.6-66.2c.2-.2-19-.4-42.7-.4Z"/></g></g></svg>