<?xml version="1.0" standalone="no"?>
<!DOCTYPE svg PUBLIC "-//W3C//DTD SVG 20010904//EN"
 "http://www.w3.org/TR/2001/REC-SVG-20010904/DTD/svg10.dtd">
<svg version="1.0" xmlns="http://www.w3.org/2000/svg"
 width="512.000000pt" height="512.000000pt" viewBox="0 0 512.000000 512.000000"
 preserveAspectRatio="xMidYMid meet">
<metadata>
Created by potrace 1.14, written by Peter Selinger 2001-2017
</metadata>
<g transform="translate(0.000000,512.000000) scale(0.100000,-0.100000)"
fill="#000000" stroke="none">
<path d="M2479 5107 c-88 -33 -97 -44 -634 -778 -290 -396 -535 -737 -545
-757 -9 -20 -131 -559 -270 -1196 -245 -1120 -253 -1161 -242 -1213 14 -65 59
-133 115 -171 79 -54 1501 -943 1540 -964 59 -30 131 -34 197 -11 46 16 1361
831 1569 972 69 47 106 102 122 182 11 52 2 96 -235 1179 -136 619 -254 1150
-262 1181 -14 48 -92 160 -552 789 -504 687 -540 735 -590 763 -63 35 -155 45
-213 24z m134 -199 c24 -22 1015 -1377 1035 -1415 5 -10 121 -527 257 -1149
221 -1007 247 -1135 236 -1161 -10 -24 -153 -118 -781 -511 -571 -357 -778
-482 -800 -482 -39 0 -1557 954 -1580 993 -13 23 4 110 235 1167 l250 1142
513 702 c282 385 522 709 533 719 29 24 73 21 102 -5z"/>
<path d="M2058 4031 c-230 -313 -418 -577 -418 -586 0 -9 41 -146 91 -303 49
-158 95 -302 101 -320 5 -19 14 -30 18 -25 4 4 148 255 319 557 l311 548 -2
349 -3 349 -417 -569z"/>
<path d="M2640 4252 l0 -350 317 -561 c175 -308 318 -559 319 -558 1 1 49 151
106 333 l105 332 -419 573 c-230 315 -420 575 -423 577 -3 3 -5 -153 -5 -346z"/>
<path d="M2235 3140 c-176 -314 -319 -576 -317 -582 1 -7 91 -294 200 -638
l198 -625 244 0 244 0 198 625 c109 344 199 631 200 638 3 12 -632 1151 -642
1151 -3 0 -149 -256 -325 -569z"/>
<path d="M1402 2444 c-84 -383 -152 -698 -150 -700 5 -4 478 833 478 847 0 13
-159 518 -169 536 -4 7 -75 -300 -159 -683z"/>
<path d="M3537 3065 c-72 -222 -147 -463 -147 -474 0 -14 473 -852 478 -846 3
2 -290 1352 -302 1390 -1 6 -14 -26 -29 -70z"/>
<path d="M1782 2338 c-20 -34 -559 -986 -581 -1025 l-12 -23 476 0 c354 0 475
3 475 12 0 11 -329 1060 -335 1066 -1 2 -12 -12 -23 -30z"/>
<path d="M3147 1842 c-92 -291 -167 -534 -167 -540 0 -9 123 -12 475 -12 l476
0 -12 23 c-40 74 -591 1043 -598 1050 -4 4 -82 -231 -174 -521z"/>
<path d="M1350 1120 c8 -5 249 -155 535 -334 286 -179 521 -324 522 -322 3 3
-19 76 -143 464 l-65 202 -432 0 c-264 0 -426 -4 -417 -10z"/>
<path d="M2373 1116 c3 -8 45 -138 93 -290 48 -152 91 -276 94 -276 3 0 46
124 94 276 48 152 90 282 93 290 4 12 -25 14 -187 14 -162 0 -191 -2 -187 -14z"/>
<path d="M2856 928 c-125 -394 -146 -461 -143 -464 3 -3 1054 650 1066 662 2
2 -190 4 -427 4 l-431 0 -65 -202z"/>
</g>
</svg>
